<?xml version="1.0" encoding="UTF-8"?>
<svg id="Layer_2" data-name="Layer 2" xmlns="http://www.w3.org/2000/svg" xmlns:xlink="http://www.w3.org/1999/xlink" viewBox="0 0 305.28 52.21">
  <defs>
    <style>
      .cls-1, .cls-2 {
        fill: none;
      }

      .cls-2 {
        stroke: #fff8fb;
        stroke-miterlimit: 10;
        stroke-width: .5px;
      }

      .cls-3 {
        opacity: .14;
      }

      .cls-4 {
        clip-path: url(#clippath);
      }
    </style>
    <clipPath id="clippath">
      <path class="cls-1" d="M19.71,0h283.02c1.4,0,2.54,1.14,2.54,2.54v29.96c0,10.88-8.83,19.71-19.71,19.71H2.54c-1.4,0-2.54-1.14-2.54-2.54v-29.96C0,8.83,8.83,0,19.71,0Z"/>
    </clipPath>
  </defs>
  <g id="Layer_1-2" data-name="Layer 1">
    <g class="cls-3">
      <g class="cls-4">
        <g>
          <line class="cls-2" x1="2.15" y1="-41.7" x2="2.15" y2="124.26"/>
          <line class="cls-2" x1="12.87" y1="-41.7" x2="12.87" y2="124.26"/>
          <line class="cls-2" x1="23.6" y1="-41.7" x2="23.6" y2="124.26"/>
          <line class="cls-2" x1="34.32" y1="-41.7" x2="34.32" y2="124.26"/>
          <line class="cls-2" x1="45.04" y1="-41.7" x2="45.04" y2="124.26"/>
          <line class="cls-2" x1="55.77" y1="-41.7" x2="55.77" y2="124.26"/>
          <line class="cls-2" x1="66.49" y1="-41.7" x2="66.49" y2="124.26"/>
          <line class="cls-2" x1="77.21" y1="-41.7" x2="77.21" y2="124.26"/>
          <line class="cls-2" x1="87.94" y1="-41.7" x2="87.94" y2="124.26"/>
          <line class="cls-2" x1="98.66" y1="-41.7" x2="98.66" y2="124.26"/>
          <line class="cls-2" x1="109.38" y1="-41.7" x2="109.38" y2="124.26"/>
          <line class="cls-2" x1="120.11" y1="-41.7" x2="120.11" y2="124.26"/>
          <line class="cls-2" x1="130.83" y1="-41.7" x2="130.83" y2="124.26"/>
          <line class="cls-2" x1="141.55" y1="-41.7" x2="141.55" y2="124.26"/>
          <line class="cls-2" x1="152.28" y1="-41.7" x2="152.28" y2="124.26"/>
          <line class="cls-2" x1="163" y1="-41.7" x2="163" y2="124.26"/>
          <line class="cls-2" x1="173.72" y1="-41.7" x2="173.72" y2="124.26"/>
          <line class="cls-2" x1="184.45" y1="-41.7" x2="184.45" y2="124.26"/>
          <line class="cls-2" x1="195.17" y1="-41.7" x2="195.17" y2="124.26"/>
          <line class="cls-2" x1="205.89" y1="-41.7" x2="205.89" y2="124.26"/>
          <line class="cls-2" x1="216.62" y1="-41.7" x2="216.62" y2="124.26"/>
          <line class="cls-2" x1="227.34" y1="-41.7" x2="227.34" y2="124.26"/>
          <line class="cls-2" x1="238.06" y1="-41.7" x2="238.06" y2="124.26"/>
          <line class="cls-2" x1="248.79" y1="-41.7" x2="248.79" y2="124.26"/>
          <line class="cls-2" x1="259.51" y1="-41.7" x2="259.51" y2="124.26"/>
          <line class="cls-2" x1="270.23" y1="-41.7" x2="270.23" y2="124.26"/>
          <line class="cls-2" x1="280.96" y1="-41.7" x2="280.96" y2="124.26"/>
          <line class="cls-2" x1="291.68" y1="-41.7" x2="291.68" y2="124.26"/>
          <line class="cls-2" x1="302.4" y1="-41.7" x2="302.4" y2="124.26"/>
          <line class="cls-2" x1="-12.62" y1="5.88" x2="343.81" y2="5.88"/>
          <line class="cls-2" x1="-12.62" y1="15.58" x2="343.81" y2="15.58"/>
          <line class="cls-2" x1="-12.62" y1="25.28" x2="343.81" y2="25.28"/>
          <line class="cls-2" x1="-12.62" y1="34.98" x2="343.81" y2="34.98"/>
          <line class="cls-2" x1="-12.62" y1="44.68" x2="343.81" y2="44.68"/>
        </g>
      </g>
    </g>
  </g>
</svg>