<?xml version="1.0" encoding="UTF-8"?>
<svg xmlns="http://www.w3.org/2000/svg" xmlns:xlink="http://www.w3.org/1999/xlink" viewBox="0 0 12.27 13.93">
  <defs>
    <style>
      .cls-1 {
        fill: #bd5170;
      }

      .cls-2 {
        fill: url(#radial-gradient-7);
      }

      .cls-3 {
        fill: url(#radial-gradient-6);
      }

      .cls-4 {
        fill: url(#radial-gradient-5);
      }

      .cls-5 {
        fill: url(#radial-gradient-4);
      }

      .cls-6 {
        fill: url(#radial-gradient-8);
      }

      .cls-7 {
        fill: url(#radial-gradient-3);
      }

      .cls-8 {
        fill: url(#radial-gradient-2);
      }

      .cls-9 {
        fill: #fff;
      }

      .cls-9, .cls-10, .cls-11 {
        mix-blend-mode: overlay;
      }

      .cls-12 {
        fill: url(#radial-gradient);
      }

      .cls-13 {
        isolation: isolate;
      }

      .cls-10 {
        opacity: .37;
      }

      .cls-10, .cls-11 {
        fill: #342f2b;
      }

      .cls-11 {
        opacity: .33;
      }

      .cls-14 {
        fill: #bd5470;
      }
    </style>
    <radialGradient id="radial-gradient" cx="-344.64" cy="-362.83" fx="-344.64" fy="-362.83" r="9.24" gradientTransform="translate(478.36 -159.74) rotate(-66.99)" gradientUnits="userSpaceOnUse">
      <stop offset="0" stop-color="#9d6c71"/>
      <stop offset=".29" stop-color="#8c4c59"/>
      <stop offset=".6" stop-color="#7f3246"/>
      <stop offset=".78" stop-color="#7a293f"/>
    </radialGradient>
    <radialGradient id="radial-gradient-2" cx="-336.03" cy="-373.87" fx="-336.03" fy="-373.87" r="4.01" gradientTransform="translate(478.36 -159.74) rotate(-66.99)" gradientUnits="userSpaceOnUse">
      <stop offset="0" stop-color="#9d6c71"/>
      <stop offset=".26" stop-color="#965f67"/>
      <stop offset=".75" stop-color="#843c4d"/>
      <stop offset="1" stop-color="#7a293f"/>
    </radialGradient>
    <radialGradient id="radial-gradient-3" cx="-297.59" cy="-212.56" fx="-297.59" fy="-212.56" r=".49" gradientTransform="translate(364.01 57.85) rotate(-27.09)" gradientUnits="userSpaceOnUse">
      <stop offset=".13" stop-color="#f9e8b7"/>
      <stop offset=".96" stop-color="#fcc856"/>
    </radialGradient>
    <radialGradient id="radial-gradient-4" cx="-294.25" cy="-212.48" fx="-294.25" fy="-212.48" r=".56" xlink:href="#radial-gradient-3"/>
    <radialGradient id="radial-gradient-5" cx="-337.75" cy="-371.4" fx="-337.75" fy="-371.4" r="13.19" gradientTransform="translate(478.36 -159.74) rotate(-66.99)" gradientUnits="userSpaceOnUse">
      <stop offset="0" stop-color="#ff8293"/>
      <stop offset=".38" stop-color="#ff7592"/>
      <stop offset="1" stop-color="#ff5792"/>
    </radialGradient>
    <radialGradient id="radial-gradient-6" cx="-294.92" cy="-210.97" fx="-294.92" fy="-210.97" r=".68" xlink:href="#radial-gradient-3"/>
    <radialGradient id="radial-gradient-7" cx="-337.64" cy="-371.32" fx="-337.64" fy="-371.32" r="13.28" xlink:href="#radial-gradient-5"/>
    <radialGradient id="radial-gradient-8" cx="-296.86" cy="-210.99" fx="-296.86" fy="-210.99" r=".67" xlink:href="#radial-gradient-3"/>
  </defs>
  <g class="cls-13">
    <g id="Layer_2" data-name="Layer 2">
      <g id="Layer_1-2" data-name="Layer 1">
        <g>
          <path class="cls-14" d="M3.55,2.5s.21-.4-.32-.56l.23-.12s.35,0,.53.15.12.45.12.45l-.57.08Z"/>
          <path class="cls-14" d="M3.89,2.47s.78-.79,1-1.46,0-.89.16-1,.43.16.15.59c0,0-.39,1.01-1.07,1.74"/>
          <path class="cls-14" d="M2.76,3.05s-1.1.17-1.77-.04-.72-.53-.9-.45-.12.44.39.47c0,0,1.04.27,2.04.15"/>
          <path class="cls-14" d="M3.04,2.76s-.45-.07-.27-.59l-.23.12s-.2.28-.19.52.3.37.3.37l.4-.41Z"/>
          <g>
            <g>
              <path class="cls-12" d="M6.9,13.35c-.48,0-.95-.07-1.39-.2-.67-.2-1.28-.55-1.82-1.04-.21-.19-.39-.38-.56-.59-1.68-2.02-1.72-4.84-.92-5.74l4.35-2.23c.07-.01.11-.01.15-.01,1.42,0,3.83,2.11,4.15,4.92.04.38.04.75,0,1.11-.09.74-.35,1.43-.78,2.07-.62.92-1.35,1.38-1.38,1.4-.04.02-.77.31-1.78.31Z"/>
              <path class="cls-14" d="M6.69,3.63c1.29,0,3.74,1.96,4.06,4.84.04.39.04.75,0,1.09-.1.83-.41,1.51-.77,2.04-.61.91-1.36,1.38-1.36,1.38,0,0-.73.29-1.74.29-.42,0-.89-.05-1.37-.19-.59-.17-1.21-.49-1.79-1.02-.2-.18-.39-.38-.56-.58-1.66-2-1.67-4.78-.92-5.63l4.33-2.21s.07,0,.11,0M6.69,3.46s-.09,0-.13,0c-.02,0-.04,0-.06.02l-4.33,2.21s-.04.02-.05.04c-.82.93-.79,3.8.92,5.85.18.21.37.41.57.6.55.5,1.17.85,1.86,1.05.45.13.93.2,1.42.2,1.03,0,1.77-.29,1.8-.31.06-.03.81-.51,1.43-1.44.44-.65.7-1.36.79-2.11.04-.37.04-.75,0-1.13-.32-2.85-2.79-4.99-4.23-4.99h0Z"/>
            </g>
            <path class="cls-10" d="M10.76,8.47c.1.93-.06,1.71-.34,2.36-.12.28-.27.54-.42.77-.43-.43-1.08-.72-2.04-.63-1.67.15-2.24,1.2-2.42,2.11-.59-.17-1.21-.49-1.79-1.02-.48-.44-.87-.94-1.16-1.46-1.05-1.86-.97-4.02-.32-4.76l4.33-2.21s.1,0,.16,0c1.3.05,3.7,1.99,4.02,4.84Z"/>
            <path class="cls-10" d="M10.76,8.47c.1.93-.06,1.71-.34,2.36-.7-.6-1.81-1.22-3.49-1.45-1.65-.22-3.18.44-4.34,1.22-1.05-1.86-.97-4.02-.32-4.76l4.25-2.18c.07-.01.15-.03.23-.04,1.3.05,3.7,1.99,4.02,4.84Z"/>
            <path class="cls-9" d="M10.76,9.56c-.1.83-.41,1.51-.77,2.04-.61.91-1.36,1.38-1.36,1.38,0,0-1.46.59-3.11.1-.59-.17-1.21-.49-1.79-1.02-.2-.18-.39-.38-.56-.58,1.3.89,2.73,2.14,5.36,1.32,0,0,1.64-1.11,2.21-3.24Z"/>
          </g>
          <g>
            <g>
              <path class="cls-8" d="M2.23,5.95s-.26-.08-.44-.34c-.13-.19-.19-.42-.18-.7,0-.13.03-.26.08-.38.19-.51.68-.88.87-1-.12-.59.34-1.05.61-1.21.02,0,.22-.09.48-.11,0,0,.1,0,.1,0,.31,0,.58.11.77.32.15-.06.51-.17.9-.17.31,0,.57.07.78.22.71.49.49,1.11.49,1.11l-4.38,2.27s-.03.01-.05.01c-.01,0-.02,0-.03,0Z"/>
              <path class="cls-14" d="M3.75,2.3c.24,0,.53.07.74.34,0,0,.44-.2.93-.2.24,0,.5.05.72.2.64.44.45.98.45.98l-4.33,2.21s-.22-.06-.38-.3c-.1-.14-.17-.35-.16-.64,0-.12.03-.24.07-.35.21-.58.85-.96.89-.99,0,0,0,0,0,0-.2-.72.54-1.17.54-1.17,0,0,.19-.08.43-.1.03,0,.06,0,.09,0M3.75,2.08s-.07,0-.11,0c-.27.02-.48.1-.5.11-.31.18-.78.65-.7,1.27-.21.15-.67.51-.85,1.01-.05.14-.08.28-.08.42,0,.3.06.56.2.77.2.3.47.38.5.39.02,0,.04,0,.06,0,.03,0,.07,0,.1-.02l4.33-2.21s.09-.07.11-.12c.01-.03.25-.71-.53-1.24-.23-.16-.51-.24-.84-.24-.36,0-.69.09-.87.16-.21-.2-.49-.3-.8-.3h0Z"/>
            </g>
            <path class="cls-7" d="M2.68,3.57c.03.09.07.22.04.33-.04.21-.24.15-.33.36-.1.21-.31.38-.51.33-.03,0-.06-.02-.09-.04.21-.58.85-.96.89-.99Z"/>
            <path class="cls-5" d="M6,2.56c0,.3-.48.41-.59.37-.12-.05-.28,0-.57.05-.22.04-.29-.23-.31-.36.17-.07.91-.33,1.47-.06Z"/>
            <ellipse class="cls-1" cx="3.08" cy="3.86" rx=".22" ry=".23" transform="translate(-1.42 1.83) rotate(-27.09)"/>
            <ellipse class="cls-1" cx="4.36" cy="3.21" rx=".22" ry=".23" transform="translate(-.98 2.34) rotate(-27.09)"/>
            <path class="cls-9" d="M6.59,3.63l-.31.16c.03-.28.02-.81-.5-1.01-.71-.27-1.41.05-1.41.05,0,0-.62-.51-1.08-.33-.45.19-.47,1.09-.46,1.09,0,0-.85.62-.9,1.25-.04.49.31.81.47.93l-.14.07s-.22-.06-.38-.3c-.1-.14-.17-.35-.16-.64.02-.78.96-1.34.96-1.34-.2-.72.54-1.17.54-1.17,0,0,.19-.08.43-.1.26-.02.59.03.83.34,0,0,1-.44,1.65,0,.64.44.45.98.45.98Z"/>
          </g>
          <g>
            <g>
              <path class="cls-4" d="M11.18,10.85c-.75-.25-1.48-.58-2.17-1-.25-.15-.49-.31-.72-.48-.28-.2-.54-.41-.78-.62-.54-.46-1.05-.99-1.52-1.56-1.08-1.33-1.55-2.45-1.57-2.5-.02-.04,0-.08.02-.12.38-.42,1.03-.77,1.52-.99l.19-.08c.26-.11.44-.17.44-.17.01,0,.1,0,.11,0,.27,0,1.21.03,2.23.4.56.2,1.05.47,1.48.81.23.18.44.38.62.6.22.26.42.55.57.87,1.21,2.39.15,4.2-.2,4.7-.06.08-.1.13-.1.13-.02.02-.05.04-.08.04-.01,0-.02,0-.03,0Z"/>
              <path class="cls-14" d="M6.69,3.43c.26,0,1.19.03,2.2.39.48.18.99.43,1.44.79.21.17.42.36.6.58.21.25.4.53.56.84,1.19,2.35.13,4.12-.2,4.58-.06.08-.09.12-.09.12-.8-.26-1.51-.6-2.15-.99h0c-.25-.15-.49-.31-.71-.47-.27-.2-.53-.4-.77-.61-.59-.51-1.09-1.04-1.5-1.55-1.08-1.33-1.56-2.47-1.56-2.47.36-.41,1-.75,1.48-.96.07-.03.13-.06.19-.08.26-.11.43-.17.43-.17,0,0,.03,0,.07,0M6.69,3.21h-.08s-.04,0-.06.01c0,0-.18.06-.44.17l-.19.09c-.5.22-1.17.58-1.56,1.02-.06.06-.07.15-.04.23.02.05.5,1.18,1.59,2.53.47.58.98,1.11,1.53,1.58.26.22.52.43.79.62.24.17.48.33.73.48.69.42,1.43.76,2.2,1.01.02,0,.05.01.07.01.06,0,.13-.03.17-.08,0,0,.04-.05.1-.13.36-.51,1.45-2.37.21-4.81-.16-.32-.36-.62-.59-.89-.19-.22-.4-.43-.64-.61-.43-.34-.94-.62-1.51-.83-1.04-.38-2-.41-2.27-.41h0Z"/>
            </g>
            <g>
              <path class="cls-1" d="M6.54,4.23c.08.71-.29.57.04,1.02.33.45.33.77-.19,1.11-.24.16-.31.47-.32.76-.77-.94-1.23-1.79-1.43-2.2-.08-.17-.13-.27-.13-.27.35-.39.97-.73,1.44-.95.01,0,.03-.01.04-.02.28.11.51.28.54.55Z"/>
              <path class="cls-3" d="M6.2,3.93c.18.35-.14.39-.46.42-.32.03-.31.19-.71.47-.14.1-.28.12-.39.1-.08-.17-.13-.27-.13-.27.35-.39.97-.73,1.44-.95.1.05.19.13.24.23Z"/>
              <path class="cls-1" d="M10.94,5.2c-.3.19-.83.49-1.03.28-.28-.29-.04-.59-.83-.83-.41-.13-.35-.5-.19-.82.71.26,1.46.68,2.05,1.37Z"/>
              <path class="cls-1" d="M11,6.24s-.22.35.09.4.22.41.43.39.19-.36.04-.57-.11-.21-.29-.38-.35-.01-.27.15Z"/>
              <path class="cls-1" d="M8.7,6.58s-.59.29-.38.73.85.21.95.4.54-.1.61-.54-.14-.19-.31-.59-.72-.39-.87,0Z"/>
              <path class="cls-1" d="M11.51,8.61s.46-.54.06-.91-.63-.42-.78-.15-.26-.26-.55.25.2,1.3.64,1.52.85-.33.63-.71Z"/>
              <circle class="cls-1" cx="7.31" cy="7.56" r=".22"/>
              <path class="cls-1" d="M7.02,4.39s.16.22-.02.52.47.46.71.18-.12-.21-.14-.46-.42-.64-.55-.25Z"/>
              <path class="cls-1" d="M9.4,9.82c-.12-.05-.23-.07-.33-.07h0c-.25-.15-.49-.31-.71-.47.12-.15.29-.28.44-.32.41-.11.19-.67.72-.36.53.32.43,1.42-.11,1.22Z"/>
            </g>
            <path class="cls-11" d="M11.5,6.04c1.39,2.74-.28,4.7-.28,4.7-.8-.26-1.51-.6-2.15-.99h0c-.25-.15-.49-.31-.71-.47-.27-.2-.53-.4-.77-.61,1.69-1.15,2.44-2.73,2.76-4.06.21.17.42.36.6.58.21.25.4.53.56.84Z"/>
            <path class="cls-9" d="M11.5,6.04c1.19,2.35.13,4.12-.2,4.58.33-.73,1.02-2.76-.38-4.76-1.36-1.94-3.74-2.23-4.74-2.26.26-.11.43-.17.43-.17,0,0,1.08-.04,2.27.39.48.18.99.43,1.44.79.21.17.42.36.6.58.21.25.4.53.56.84Z"/>
            <ellipse class="cls-9" cx="11.05" cy="6.29" rx=".4" ry=".9" transform="translate(-1.65 5.72) rotate(-27.09)"/>
            <ellipse class="cls-9" cx="11" cy="7.43" rx=".21" ry=".35" transform="translate(-2.18 5.82) rotate(-27.09)"/>
          </g>
          <g>
            <g>
              <path class="cls-2" d="M5.27,13.82c-.61,0-2.7-.2-3.93-2.58-.16-.31-.29-.64-.37-.97-.07-.27-.11-.56-.12-.85-.02-.54.05-1.1.21-1.67.35-1.23,1-2.07,1.03-2.11.02-.02.18-.13.42-.28l.18-.11c.46-.26,1.13-.59,1.69-.65h.01s.07.02.09.05c.03.04.66,1.08,1.11,2.74.19.71.32,1.43.38,2.14.03.32.04.65.04,1,0,.28-.01.57-.04.86-.06.8-.22,1.59-.46,2.35-.01.04-.05.07-.1.08h-.13s-.03,0-.03,0Z"/>
              <path class="cls-14" d="M4.39,4.71s.65,1.05,1.1,2.71c.17.63.31,1.35.38,2.12.03.32.04.65.04.99,0,.28-.01.56-.04.85h0c-.06.75-.2,1.53-.46,2.32,0,0-.04,0-.13,0,0,0-.01,0-.02,0-.57,0-2.62-.19-3.83-2.52-.16-.32-.28-.63-.36-.95-.07-.28-.11-.56-.12-.83-.03-.58.06-1.14.2-1.63.35-1.22,1.01-2.07,1.01-2.07,0,0,.15-.11.39-.25.06-.03.12-.07.18-.11.46-.26,1.11-.58,1.65-.64M4.39,4.49s-.02,0-.02,0c-.58.06-1.27.4-1.74.67l-.18.11c-.25.15-.4.26-.4.26-.02.01-.03.03-.05.05-.03.04-.69.9-1.05,2.15-.17.58-.24,1.15-.21,1.7.01.3.06.59.12.87.08.34.21.68.37,1,1.26,2.43,3.4,2.64,4.03,2.64h0c.11,0,.16,0,.16,0,.09,0,.17-.07.19-.15.24-.77.4-1.56.47-2.37.02-.29.04-.58.04-.87,0-.33-.01-.67-.04-1-.06-.72-.19-1.45-.39-2.16-.45-1.67-1.09-2.72-1.12-2.77-.04-.07-.11-.11-.19-.11h0Z"/>
            </g>
            <g>
              <path class="cls-1" d="M5.49,7.42c-.24-.17-.53-.3-.8-.19-.58.23-.84.03-1.01-.5-.17-.53-.27-.15-.8-.62-.18-.16-.2-.42-.15-.69,0-.03.01-.05.02-.08.46-.26,1.11-.58,1.65-.64,0,0,.04.06.11.19.2.37.65,1.27.99,2.52Z"/>
              <path class="cls-6" d="M4.5,4.9c-.02.08-.07.17-.14.23-.24.22-.55.15-.68.09-.14-.06-.2,0-.66.16-.13.04-.22.05-.29.05,0-.03.01-.05.02-.08.46-.26,1.11-.58,1.65-.64,0,0,.04.06.11.19Z"/>
              <path class="cls-1" d="M1.08,10.24c.33-.13.88-.39.83-.67-.07-.4-.45-.38-.19-1.16.14-.41-.2-.57-.55-.64-.21.72-.3,1.58-.08,2.46Z"/>
              <path class="cls-1" d="M1.89,10.9s.42.03.27.31.2.42.07.57-.4-.06-.48-.3-.11-.22-.14-.46.2-.29.28-.13Z"/>
              <path class="cls-1" d="M3.51,9.23s.58-.31.82.12-.33.81-.23,1.01-.4.37-.8.17-.07-.22-.29-.59.1-.81.5-.7Z"/>
              <path class="cls-1" d="M3.52,12.7s-.71.06-.77-.48.03-.75.33-.72-.06-.36.52-.3.94.93.86,1.41-.77.5-.94.09Z"/>
              <circle class="cls-1" cx="5.12" cy="8.68" r=".22"/>
              <path class="cls-1" d="M2.72,6.59s.09.26.43.29.1.65-.27.68-.1-.22-.29-.38-.27-.72.12-.59Z"/>
              <path class="cls-1" d="M5.73,11.69c.03-.13.08-.23.14-.31h0c.02-.29.03-.58.04-.85-.19,0-.4.07-.52.17-.32.27-.66-.24-.71.37-.05.62.9,1.18,1.05.62Z"/>
            </g>
            <path class="cls-11" d="M1.44,11.19c1.41,2.73,3.98,2.52,3.98,2.52.25-.8.4-1.58.46-2.32h0c.02-.29.03-.58.04-.85,0-.34-.01-.67-.04-.99-1.92.7-3.64.38-4.9-.14.01.27.05.55.12.83.08.31.19.63.36.95Z"/>
            <path class="cls-9" d="M1.44,11.19c1.21,2.34,3.27,2.52,3.83,2.52-.79-.16-2.84-.79-3.64-3.09-.78-2.24.38-4.34.94-5.17-.24.14-.39.25-.39.25,0,0-.66.85-1.01,2.07-.14.49-.23,1.05-.2,1.63.01.27.05.55.12.83.08.31.19.63.36.95Z"/>
            <ellipse class="cls-9" cx="1.9" cy="10.97" rx=".4" ry=".9" transform="translate(-4.79 2.07) rotate(-27.09)"/>
            <ellipse class="cls-9" cx="2.85" cy="11.59" rx=".21" ry=".35" transform="translate(-4.97 2.57) rotate(-27.09)"/>
          </g>
        </g>
      </g>
    </g>
  </g>
</svg>