<?xml version="1.0" encoding="UTF-8"?>
<svg xmlns="http://www.w3.org/2000/svg" xmlns:xlink="http://www.w3.org/1999/xlink" viewBox="0 0 24.03 23.34">
  <defs>
    <style>
      .cls-1, .cls-2 {
        fill: #ffabce;
      }

      .cls-1, .cls-3, .cls-4 {
        mix-blend-mode: overlay;
      }

      .cls-5 {
        fill: url(#linear-gradient-5);
      }

      .cls-6 {
        fill: url(#linear-gradient-6);
      }

      .cls-7 {
        fill: url(#linear-gradient-4);
      }

      .cls-8 {
        fill: url(#linear-gradient-3);
      }

      .cls-9 {
        fill: url(#linear-gradient-2);
      }

      .cls-10 {
        fill: url(#linear-gradient);
      }

      .cls-11 {
        isolation: isolate;
      }

      .cls-3 {
        fill: #202020;
        opacity: .36;
      }

      .cls-12 {
        fill: #cc206c;
      }
    </style>
    <linearGradient id="linear-gradient" x1="3.09" y1="2.33" x2="6.2" y2="6.95" gradientUnits="userSpaceOnUse">
      <stop offset="0" stop-color="#ff7ab0"/>
      <stop offset=".96" stop-color="#eb257c"/>
    </linearGradient>
    <linearGradient id="linear-gradient-2" x1="302.7" y1="2.33" x2="305.81" y2="6.95" gradientTransform="translate(323.64) rotate(-180) scale(1 -1)" xlink:href="#linear-gradient"/>
    <linearGradient id="linear-gradient-3" x1="12.22" y1="3.31" x2="12.27" y2="11.16" xlink:href="#linear-gradient"/>
    <linearGradient id="linear-gradient-4" x1="11.79" y1="9.88" x2="14.34" y2="16.54" xlink:href="#linear-gradient"/>
    <linearGradient id="linear-gradient-5" x1="9.56" y1="15.41" x2="12.9" y2="20.37" xlink:href="#linear-gradient"/>
    <linearGradient id="linear-gradient-6" x1="11.75" y1="12.42" x2="12.36" y2="13.33" xlink:href="#linear-gradient"/>
  </defs>
  <g class="cls-11">
    <g id="Layer_2" data-name="Layer 2">
      <g id="Layer_1-2" data-name="Layer 1">
        <g>
          <g>
            <g>
              <path class="cls-10" d="M3.82,10.26c-.09,0-.18,0-.27,0-1.62-.13-2.99-1.51-3.32-3.36C-.02,5.49.38,3.68,2.25,2.81c.67-.32,1.45-.47,2.31-.47,1.84,0,3.69.72,4.91,1.32.06.03.12.05.18.08.77.38,1.19.65,1.21.66.04.02.06.06.07.11,0,.04,0,.09-.03.13l-.32.43s-.08.07-.13.07c-.02,0-.04,0-.05,0-.03-.01-3.52-1.16-6.01-1.16-1.07,0-1.79.21-2.15.62-.59.67-.75,1.41-.44,2.08.4.88,1.5,1.43,2.87,1.43,2.3-.03,4.96-1.91,5.77-2.53,0-.01.02-.03.04-.04l.25-.18s.06-.03.1-.03c.04,0,.09.02.12.05l.41.42c.06.06.06.17,0,.23,0,0-.15.15-.42.39-1.29,1.18-4.48,3.85-7.1,3.85Z"/>
              <path class="cls-12" d="M4.56,2.5c1.8,0,3.64.71,4.84,1.3.09.05.18.08.26.11.68.34,1.11.62,1.11.62l-.19.26-.13.17s-3.52-1.17-6.07-1.17c-1,0-1.84.18-2.27.68-1.53,1.74-.14,3.78,2.55,3.78.02,0,.04,0,.07,0,2.29-.03,5.01-1.96,5.83-2.59h0c.16-.13.25-.19.25-.19l.41.42s-.15.15-.41.39c-.01.01-.02.02-.03.03-1.16,1.06-4.37,3.77-6.95,3.77-.09,0-.17,0-.26,0-3.22-.25-4.72-5.52-1.24-7.12.7-.33,1.46-.46,2.24-.46M4.56,2.17c-.88,0-1.68.17-2.38.49C.22,3.57-.19,5.46.07,6.92c.35,1.93,1.77,3.36,3.47,3.49.09,0,.19.01.28.01,2.67,0,5.91-2.7,7.18-3.86,0,0,.04-.04.05-.04.26-.24.41-.39.41-.39.13-.13.13-.34,0-.47l-.41-.42c-.06-.07-.15-.1-.24-.1-.03,0-.06,0-.1.01l.12-.17.19-.26c.05-.07.08-.17.06-.26-.02-.09-.07-.17-.15-.22-.02-.01-.45-.29-1.14-.63l-.09-.04c-.05-.02-.11-.05-.17-.07-1.25-.61-3.12-1.34-4.99-1.34h0ZM4.66,7.93c-1.3,0-2.35-.51-2.72-1.34-.27-.6-.13-1.28.42-1.9.32-.37,1.02-.56,2.02-.56,2.46,0,5.93,1.14,5.96,1.15.03.01.07.02.1.02.02,0,.04,0,.06,0-.04.03-.08.06-.14.1-.02.02-.05.04-.06.06-.66.5-3.38,2.44-5.58,2.48h-.06Z"/>
            </g>
            <path class="cls-3" d="M4.73,8.26c2.29-.03,5.01-1.96,5.83-2.59-1.09,1.34-3.9,4.01-6.69,3.73C.2,9.04.27,4.88,2.54,3.8c2.28-1.09,7.19.76,7.19.76l.84.24-.13.17s-6.81-2.26-8.34-.49c-1.54,1.75-.11,3.82,2.62,3.78Z"/>
            <path class="cls-1" d="M10.78,6.33c-1.2,1.09-4.59,3.95-7.21,3.76-3.22-.25-4.72-5.52-1.24-7.12,2.34-1.09,5.36,0,7.08.84-1.23-.51-3.65-1.32-5.71-.97C.83,3.32.33,5.37.69,7.29c.36,1.93,2.1,3.12,4.4,2.43,1.79-.55,4.56-2.54,5.69-3.4Z"/>
            <ellipse class="cls-1" cx="4.03" cy="2.81" rx=".58" ry=".23"/>
            <ellipse class="cls-1" cx="4.86" cy="3.14" rx=".31" ry=".17"/>
          </g>
          <g>
            <g>
              <path class="cls-9" d="M20.2,10.26c-2.62,0-5.81-2.67-7.07-3.81-.3-.28-.45-.43-.45-.43-.06-.06-.06-.17,0-.23l.41-.42s.08-.05.12-.05c.03,0,.07.01.1.03l.25.18s.03.03.04.04c.82.62,3.47,2.49,5.7,2.53h0c1.43,0,2.53-.55,2.93-1.43.3-.67.15-1.4-.44-2.07-.35-.41-1.08-.62-2.15-.62-2.49,0-5.98,1.14-6.01,1.16-.02,0-.03,0-.05,0-.05,0-.1-.02-.13-.07l-.32-.43s-.04-.08-.03-.13c0-.04.03-.08.07-.11.02-.01.44-.28,1.12-.63.14-.06.2-.08.26-.11,1.23-.6,3.08-1.32,4.91-1.32.86,0,1.63.16,2.31.47,1.87.87,2.27,2.67,2.02,4.08-.33,1.85-1.7,3.23-3.32,3.36-.09,0-.18,0-.27,0h0Z"/>
              <path class="cls-12" d="M19.47,2.5c.77,0,1.53.13,2.24.46,3.48,1.61,1.98,6.87-1.24,7.12-.09,0-.17,0-.26,0-2.58,0-5.8-2.71-6.95-3.77-.01-.01-.02-.02-.03-.03-.26-.24-.41-.39-.41-.39l.41-.42s.09.07.25.18h0c.82.64,3.54,2.56,5.83,2.6.02,0,.04,0,.07,0,2.69,0,4.08-2.04,2.55-3.78-.43-.5-1.28-.68-2.27-.68-2.55,0-6.07,1.17-6.07,1.17l-.13-.17-.19-.26s.42-.27,1.11-.62c.08-.03.17-.07.26-.11,1.2-.59,3.04-1.3,4.84-1.3M19.47,2.17c-1.87,0-3.74.73-4.99,1.34-.06.03-.12.05-.17.07l-.08.03c-.71.35-1.14.63-1.16.64-.08.05-.13.13-.15.22-.02.09,0,.18.06.26l.19.26.12.17s-.06-.01-.1-.01c-.09,0-.17.03-.24.1l-.41.42c-.13.13-.13.34,0,.47,0,0,.15.15.42.4,1.3,1.19,4.54,3.89,7.21,3.89.1,0,.19,0,.28-.01,1.7-.13,3.12-1.57,3.47-3.5.26-1.47-.15-3.35-2.11-4.26-.69-.33-1.49-.49-2.37-.49h0ZM13.58,5.3s.07,0,.1-.02c.03-.01,3.5-1.15,5.96-1.15,1.01,0,1.71.19,2.02.56.54.62.69,1.29.42,1.9-.37.82-1.42,1.34-2.72,1.34h-.06c-2.21-.03-4.94-1.99-5.59-2.48-.02-.02-.04-.04-.06-.06-.05-.04-.1-.07-.14-.1.02,0,.04,0,.06,0h0Z"/>
            </g>
            <path class="cls-3" d="M19.3,8.26c-2.29-.03-5.01-1.96-5.83-2.59,1.09,1.34,3.9,4.01,6.69,3.73,3.67-.36,3.6-4.53,1.33-5.61-2.28-1.09-7.19.76-7.19.76l-.84.24.13.17s6.81-2.26,8.34-.49c1.54,1.75.11,3.82-2.62,3.78Z"/>
            <path class="cls-1" d="M13.25,6.33c1.2,1.09,4.59,3.95,7.21,3.76,3.22-.25,4.72-5.52,1.24-7.12-2.34-1.09-5.36,0-7.08.84,1.23-.51,3.65-1.32,5.71-.97,2.86.49,3.36,2.54,2.99,4.46-.36,1.93-2.1,3.12-4.4,2.43-1.79-.55-4.56-2.54-5.69-3.4Z"/>
            <ellipse class="cls-1" cx="19.99" cy="2.81" rx=".58" ry=".23"/>
            <ellipse class="cls-1" cx="19.17" cy="3.14" rx=".31" ry=".17"/>
          </g>
          <g>
            <path class="cls-8" d="M12.23,9.44c-1.03,0-1.86-.84-1.86-1.86v-.91h-.91c-.7,0-1.33-.38-1.64-1-.14-.24-.22-.54-.22-.86,0-1.04.82-1.86,1.86-1.86h.91v-.91c0-1.03.84-1.88,1.86-1.88s1.86.84,1.86,1.88v.91h.91c1.03,0,1.88.84,1.88,1.86,0,.28-.06.54-.19.78-.29.66-.95,1.08-1.69,1.08h-.91v.91c0,1.03-.84,1.86-1.86,1.86Z"/>
            <path class="cls-12" d="M12.23.33c.93,0,1.7.76,1.7,1.71v1.07h1.07c.95,0,1.71.75,1.71,1.7,0,.25-.06.49-.17.71h0c-.26.59-.85.99-1.54.99h-1.07v1.07c0,.93-.76,1.7-1.7,1.7s-1.7-.76-1.7-1.7v-1.07h-1.07c-.66,0-1.22-.36-1.49-.91-.14-.23-.21-.5-.21-.79,0-.95.75-1.7,1.7-1.7h1.07v-1.07c0-.95.76-1.71,1.7-1.71M12.23,0c-1.12,0-2.03.92-2.03,2.04v.74h-.74c-1.14,0-2.03.89-2.03,2.03,0,.35.09.68.25.96.33.65,1.01,1.07,1.78,1.07h.74v.74c0,1.12.91,2.03,2.03,2.03s2.03-.91,2.03-2.03v-.74h.74c.8,0,1.52-.46,1.84-1.18,0-.01.01-.03.02-.04.12-.25.19-.52.19-.81,0-1.12-.92-2.03-2.04-2.03h-.74v-.74c0-1.13-.91-2.04-2.03-2.04h0Z"/>
          </g>
          <path class="cls-1" d="M16.53,5.52c.03-.54-.05-1.2-.48-1.58-.85-.74-2.51-.56-2.51-.56.21-.99.03-2.88-1.58-2.61-1.61.26-1.13,2.77-1.13,2.77,0,0-2.38-.25-2.79.72-.19.44-.17.95-.08,1.34-.14-.23-.21-.5-.21-.79,0-.95.75-1.7,1.7-1.7h1.07v-1.07c0-.95.76-1.71,1.7-1.71s1.7.76,1.7,1.71v1.07h1.07c.95,0,1.71.75,1.71,1.7,0,.25-.06.49-.17.71Z"/>
          <g>
            <path class="cls-7" d="M12.18,12.01s-.09-.03-.11-.08c-.19-.58-.32-.71-.9-.9-.05-.02-.08-.06-.08-.11,0-.05.03-.09.08-.11.58-.19.71-.32.9-.9.02-.05.06-.08.11-.08h0s.09.03.11.08c.19.58.32.71.9.9.05.02.08.06.08.11,0,.05-.03.09-.08.11-.58.19-.71.32-.9.9-.02.05-.06.08-.11.08Z"/>
            <path class="cls-12" d="M12.18,9.94c.2.62.36.78.98.98-.62.2-.78.36-.98.98-.2-.62-.36-.78-.98-.98.62-.2.78-.36.98-.98M12.18,9.71c-.1,0-.19.06-.22.16-.18.54-.28.65-.83.83-.09.03-.16.12-.16.22,0,.1.06.19.16.22.54.18.65.28.83.83.03.09.12.16.22.16s.19-.06.22-.16c.18-.54.28-.65.83-.83.09-.03.16-.12.16-.22,0-.1-.06-.19-.16-.22-.54-.18-.65-.28-.83-.83-.03-.09-.12-.16-.22-.16h0Z"/>
          </g>
          <g class="cls-4">
            <path class="cls-2" d="M12.18,10.36c.13.27.29.43.56.56-.27.13-.43.29-.56.56-.13-.27-.29-.43-.56-.56.27-.13.43-.29.56-.56M12.18,9.94c-.2.62-.36.78-.98.98.62.2.78.36.98.98.2-.62.36-.78.98-.98-.62-.2-.78-.36-.98-.98h0Z"/>
          </g>
          <g>
            <g>
              <path class="cls-5" d="M12.12,23.27c-.23,0-.85-.03-1.58-.32-.05-.1-.05-3.2.31-5.84.22-1.62.54-2.75.93-3.34l.76-.03c1.35,1.99,1.36,8.85,1.36,9.14-.25.15-.44.21-.62.25-.47.12-.84.14-1.02.14l-.13-.07v.07Z"/>
              <path class="cls-12" d="M12.53,13.81c1.3,1.96,1.28,9.07,1.28,9.07-.2.08-.39.14-.57.18-.48.12-.86.14-1,.14-.04,0-.06,0-.06,0,0,0-.03,0-.07,0-.2,0-.82-.02-1.56-.31,0,0,0-3.09.35-5.76.19-1.38.48-2.64.92-3.31h.7M12.53,13.67h-.7s-.09.02-.12.07c-.41.61-.71,1.71-.94,3.37-.36,2.65-.36,5.75-.36,5.78,0,.06.04.11.09.14.74.29,1.37.32,1.61.32h.06s.07,0,.07,0c.18,0,.56-.02,1.04-.14.21-.05.41-.11.59-.18.05-.02.09-.08.09-.13,0-.29,0-7.18-1.31-9.15-.03-.04-.07-.07-.12-.07h0Z"/>
            </g>
            <path class="cls-3" d="M13.81,22.88s-.09.03-.13.05c-.15.05-.3.1-.44.13.08-2.07-.55-7.7-1.21-8.24-.4-.33-.68.94-1.13,2.3.18-1.28.44-2.46.83-3.16.03-.05.05-.1.09-.15h.7c1.3,1.96,1.28,9.07,1.28,9.07Z"/>
            <path class="cls-1" d="M13.81,22.88s-.09.03-.13.05c-.01-1.41-.08-3.19-.28-4.67-.39-2.96-.96-4.3-.96-4.3h-.7c.03-.05.05-.1.09-.15h.7c1.3,1.96,1.28,9.07,1.28,9.07Z"/>
            <g>
              <rect class="cls-6" x="11.75" y="12.35" width=".87" height="1.42" rx=".07" ry=".07"/>
              <path class="cls-12" d="M12.54,12.43v1.27h-.72v-1.27h.72M12.54,12.28h-.72c-.08,0-.15.07-.15.15v1.27c0,.08.07.15.15.15h.72c.08,0,.15-.07.15-.15v-1.27c0-.08-.07-.15-.15-.15h0Z"/>
            </g>
            <path class="cls-3" d="M12.54,13.27v.43h-.72v-.42c.18.03.43.05.72,0Z"/>
          </g>
        </g>
      </g>
    </g>
  </g>
</svg>